<svg xmlns="http://www.w3.org/2000/svg" width="1000" height="680" viewBox="0 0 1000 680" role="img" aria-labelledby="title desc">
  <title id="title">Album Style Route</title>
  <desc id="desc">路线示意 / 非导航路线，不是精确导航路线。基于真实点位相对位置生成，风格化地图用于旅行相册展示，保留点位相对方位与顺序。</desc>
  <defs>
    <filter id="softShadow" x="-20%" y="-20%" width="140%" height="140%">
      <feDropShadow dx="0" dy="4" stdDeviation="5" flood-color="#236f58" flood-opacity="0.14"/>
    </filter>
  </defs>
  <rect width="1000" height="680" rx="28" fill="#f7f1df"/>
  <path d="M0 110 C160 64 290 126 420 82 C590 26 738 62 1000 18 L1000 0 L0 0 Z" fill="#ecf6df" opacity="0.8"/>
  <path d="M20 470 C170 430 260 480 388 448 C520 418 642 456 770 424 C870 400 928 422 1000 386 L1000 680 L0 680 Z" fill="#e0f2da" opacity="0.95"/>
  <path d="M688 116 C760 76 892 92 930 164 C978 254 884 316 774 292 C692 274 610 180 688 116 Z" fill="#a9d8f5" opacity="0.64"/>
  <path d="M132 342 C220 270 308 298 382 236 C438 190 500 194 562 154" fill="none" stroke="#a9d8f5" stroke-width="10" opacity="0.32" stroke-linecap="round"/>
  <text x="36" y="44" font-size="24" font-weight="900" fill="#264653">Album Style Route</text>
  <text x="36" y="68" font-size="12" font-weight="800" fill="#6b7280">基于真实点位相对位置 · 路线示意 / 非导航路线</text>
  <g transform="translate(780 28)">
    <rect width="178" height="28" rx="14" fill="#fffaf0" stroke="#c8e2d6"/>
    <text x="16" y="18" font-size="12" font-weight="900" fill="#4CAF87">relative-position based</text>
  </g>
  <path d="M 362.6 513.9 Q 375.6 525.9 388.6 513.9 Q 371.3 487.9 353.9 481.9 Q 366.0 486.9 378.1 467.9 Q 378.1 471.9 378.1 495.9 Q 366.0 514.9 353.9 509.9 Q 358.3 505.0 362.6 520.0 Q 407.6 501.2 452.6 458.3 Q 544.5 271.8 636.4 105.3 Q 649.4 117.3 662.4 105.3 Q 649.4 108.3 636.4 131.3 Q 623.4 130.3 610.4 105.3 Q 608.1 82.9 605.8 80.5 Q 605.8 103.5 605.8 102.5 Q 603.9 96.8 602.0 111.2 Q 465.9 315.6 329.7 495.9 Q 329.7 471.9 329.7 467.9 Q 333.1 502.9 336.6 513.9" fill="none" stroke="#236f58" stroke-width="11" stroke-linecap="round" stroke-linejoin="round" opacity="0.12"/>
  <path d="M 362.6 513.9 Q 375.6 525.9 388.6 513.9 Q 371.3 487.9 353.9 481.9 Q 366.0 486.9 378.1 467.9 Q 378.1 471.9 378.1 495.9 Q 366.0 514.9 353.9 509.9 Q 358.3 505.0 362.6 520.0 Q 407.6 501.2 452.6 458.3 Q 544.5 271.8 636.4 105.3 Q 649.4 117.3 662.4 105.3 Q 649.4 108.3 636.4 131.3 Q 623.4 130.3 610.4 105.3 Q 608.1 82.9 605.8 80.5 Q 605.8 103.5 605.8 102.5 Q 603.9 96.8 602.0 111.2 Q 465.9 315.6 329.7 495.9 Q 329.7 471.9 329.7 467.9 Q 333.1 502.9 336.6 513.9" fill="none" stroke="#4CAF87" stroke-width="4" stroke-linecap="round" stroke-linejoin="round"/>
  
  <g class="route-marker" tabindex="0">
    <title>丽江古城-文昌宫观景台｜第一站：旅程开始</title>
    <circle cx="362.63" cy="513.94" r="14" fill="#e9fff3" stroke="#4CAF87" stroke-width="4"/>
    <text x="362.63" y="517.9" text-anchor="middle" font-size="10" font-weight="900" fill="#173653">01</text>
  </g>
  <path d="M 362.63 513.94 L 453.63 497.0" stroke="#7eb7a0" stroke-width="1.2" opacity="0.58"/>
  <g class="route-label">
    <rect x="378.63" y="474.0" width="150" height="46" rx="13" fill="#fffaf0" stroke="#b8d8cc" filter="url(#softShadow)"/>
    <text x="388.6" y="491.0" font-size="12" font-weight="900" fill="#264653">丽江古城-文昌宫观景…</text>
    <text x="388.6" y="506.0" font-size="10" font-weight="700" fill="#6b7280">旅程开始</text>
  </g>
  <g class="route-marker" tabindex="0">
    <title>清真寺(北门坡)｜中间站：沿途停留</title>
    <circle cx="388.63" cy="513.94" r="14" fill="#eff7ff" stroke="#2F80ED" stroke-width="4"/>
    <text x="388.63" y="517.9" text-anchor="middle" font-size="10" font-weight="900" fill="#173653">02</text>
  </g>
  <g class="route-marker" tabindex="0">
    <title>雪洛轻奢·日照金山丨设计师民宿SnowMountainSceneryVilla｜中间站：沿途停留</title>
    <circle cx="353.9" cy="481.93" r="14" fill="#eff7ff" stroke="#2F80ED" stroke-width="4"/>
    <text x="353.9" y="485.9" text-anchor="middle" font-size="10" font-weight="900" fill="#173653">03</text>
  </g>
  <g class="route-marker" tabindex="0">
    <title>为山而来观景民宿(白沙古镇店)｜中间站：沿途停留</title>
    <circle cx="378.15" cy="467.93" r="14" fill="#eff7ff" stroke="#2F80ED" stroke-width="4"/>
    <text x="378.15" y="471.9" text-anchor="middle" font-size="10" font-weight="900" fill="#173653">04</text>
  </g>
  <g class="route-marker" tabindex="0">
    <title>向阳｜中间站：沿途停留</title>
    <circle cx="378.15" cy="495.93" r="14" fill="#eff7ff" stroke="#2F80ED" stroke-width="4"/>
    <text x="378.15" y="499.9" text-anchor="middle" font-size="10" font-weight="900" fill="#173653">05</text>
  </g>
  <g class="route-marker" tabindex="0">
    <title>玉龙纳西族自治县白沙镇幼儿园｜中间站：沿途停留</title>
    <circle cx="353.9" cy="509.93" r="14" fill="#eff7ff" stroke="#2F80ED" stroke-width="4"/>
    <text x="353.9" y="513.9" text-anchor="middle" font-size="10" font-weight="900" fill="#173653">06</text>
  </g>
  <g class="route-marker" tabindex="0">
    <title>清溪公园｜中间站：沿途停留</title>
    <circle cx="362.63" cy="520.0" r="14" fill="#eff7ff" stroke="#2F80ED" stroke-width="4"/>
    <text x="362.63" y="524.0" text-anchor="middle" font-size="10" font-weight="900" fill="#173653">07</text>
  </g>
  <g class="route-marker" tabindex="0">
    <title>树底｜中间站：沿途停留</title>
    <circle cx="452.63" cy="458.34" r="14" fill="#eff7ff" stroke="#2F80ED" stroke-width="4"/>
    <text x="452.63" y="462.3" text-anchor="middle" font-size="10" font-weight="900" fill="#173653">08</text>
  </g>
  <g class="route-marker" tabindex="0">
    <title>泸沽湖国家级风景名胜区-洛洼南古村落｜中间站：沿途停留</title>
    <circle cx="636.37" cy="105.34" r="14" fill="#eff7ff" stroke="#2F80ED" stroke-width="4"/>
    <text x="636.37" y="109.3" text-anchor="middle" font-size="10" font-weight="900" fill="#173653">09</text>
  </g>
  <g class="route-marker" tabindex="0">
    <title>直玛次尔亭｜中间站：沿途停留</title>
    <circle cx="662.37" cy="105.34" r="14" fill="#eff7ff" stroke="#2F80ED" stroke-width="4"/>
    <text x="662.37" y="109.3" text-anchor="middle" font-size="10" font-weight="900" fill="#173653">10</text>
  </g>
  <g class="route-marker" tabindex="0">
    <title>官地花海码头｜中间站：沿途停留</title>
    <circle cx="636.37" cy="131.34" r="14" fill="#eff7ff" stroke="#2F80ED" stroke-width="4"/>
    <text x="636.37" y="135.3" text-anchor="middle" font-size="10" font-weight="900" fill="#173653">11</text>
  </g>
  <g class="route-marker" tabindex="0">
    <title>泸沽湖景区-雍仲林寺(喇塔贡巴)｜中间站：沿途停留</title>
    <circle cx="610.37" cy="105.34" r="14" fill="#eff7ff" stroke="#2F80ED" stroke-width="4"/>
    <text x="610.37" y="109.3" text-anchor="middle" font-size="10" font-weight="900" fill="#173653">12</text>
  </g>
  <g class="route-marker" tabindex="0">
    <title>泸沽湖风景名胜区出水洞｜中间站：沿途停留</title>
    <circle cx="605.76" cy="80.5" r="14" fill="#eff7ff" stroke="#2F80ED" stroke-width="4"/>
    <text x="605.76" y="84.5" text-anchor="middle" font-size="10" font-weight="900" fill="#173653">13</text>
  </g>
  <g class="route-marker" tabindex="0">
    <title>小洛水(建设中)｜中间站：沿途停留</title>
    <circle cx="605.76" cy="102.5" r="14" fill="#eff7ff" stroke="#2F80ED" stroke-width="4"/>
    <text x="605.76" y="106.5" text-anchor="middle" font-size="10" font-weight="900" fill="#173653">14</text>
  </g>
  <g class="route-marker" tabindex="0">
    <title>次第花开客栈(泸沽湖大落水店)｜中间站：沿途停留</title>
    <circle cx="602.05" cy="111.18" r="14" fill="#eff7ff" stroke="#2F80ED" stroke-width="4"/>
    <text x="602.05" y="115.2" text-anchor="middle" font-size="10" font-weight="900" fill="#173653">15</text>
  </g>
  <g class="route-marker" tabindex="0">
    <title>茶马古道博物馆｜中间站：沿途停留</title>
    <circle cx="329.66" cy="495.93" r="14" fill="#eff7ff" stroke="#2F80ED" stroke-width="4"/>
    <text x="329.66" y="499.9" text-anchor="middle" font-size="10" font-weight="900" fill="#173653">16</text>
  </g>
  <g class="route-marker" tabindex="0">
    <title>丽江束河塘舍精品客栈｜中间站：沿途停留</title>
    <circle cx="329.66" cy="467.93" r="14" fill="#eff7ff" stroke="#2F80ED" stroke-width="4"/>
    <text x="329.66" y="471.9" text-anchor="middle" font-size="10" font-weight="900" fill="#173653">17</text>
  </g>
  <g class="route-marker" tabindex="0">
    <title>丽江市博物院｜最后一站：路线收尾</title>
    <circle cx="336.63" cy="513.94" r="14" fill="#fff3d9" stroke="#F59E0B" stroke-width="4"/>
    <text x="336.63" y="517.9" text-anchor="middle" font-size="10" font-weight="900" fill="#173653">18</text>
  </g>
  <path d="M 336.63 513.94 L 245.63 497.0" stroke="#7eb7a0" stroke-width="1.2" opacity="0.58"/>
  <g class="route-label">
    <rect x="170.63" y="474.0" width="150" height="46" rx="13" fill="#fffaf0" stroke="#b8d8cc" filter="url(#softShadow)"/>
    <text x="180.6" y="491.0" font-size="12" font-weight="900" fill="#264653">丽江市博物院</text>
    <text x="180.6" y="506.0" font-size="10" font-weight="700" fill="#6b7280">路线收尾</text>
  </g>
  <g transform="translate(36 608)">
    <rect width="928" height="44" rx="16" fill="#fffaf0" stroke="#eadfbd"/>
    <text x="16" y="20" font-size="12" font-weight="900" fill="#264653">风格化地图用于旅行相册展示，保留点位相对方位与顺序，不是精确导航路线。</text>
    <text x="16" y="36" font-size="10" fill="#6b7280">debug: label_collision_resolved_with_min_overlap_stop_1；label_hidden_due_collision_stop_9；label_hidden_due_collision_stop_12；la</text>
  </g>
</svg>
